<svg width="100" height="100" viewBox="0 0 100 100" fill="none" xmlns="http://www.w3.org/2000/svg">
<rect width="100" height="100" rx="8" fill="#232735"/>
<circle cx="21" cy="50" r="10.5" stroke="#00CCFF" stroke-width="2"/>
<path d="M25.459 45.999C25.5615 45.8965 25.7292 45.9041 25.8184 46L25.8203 46.0029C26.8621 47.1148 27.4999 48.599 27.5 50.2441C27.5 53.7666 24.5906 56.6081 21.0498 56.4971H21.0488C17.6664 56.3928 14.9064 53.4579 15.0029 50.0723C15.0516 48.4958 15.6817 47.0727 16.6885 46.0029L16.6914 46C16.7806 45.9038 16.9415 45.8965 17.0439 45.999C17.1208 46.0761 17.1352 46.1994 17.0732 46.2969L17.042 46.3369L17.0381 46.3408C16.0862 47.3671 15.502 48.7401 15.502 50.252C15.502 53.4544 18.1122 56.0426 21.3232 55.9951L21.3242 55.9961V55.9951L21.3262 55.9961L21.3252 55.9951C24.3788 55.9626 26.9108 53.4215 26.999 50.3994L27 50.1055C26.9671 48.6502 26.391 47.3329 25.4619 46.3457L25.4609 46.3447L25.4287 46.3037C25.3641 46.2038 25.3781 46.08 25.459 45.999ZM21.251 44C21.3869 44 21.5009 44.1134 21.501 44.25V50.252C21.501 50.3887 21.387 50.502 21.251 50.502C21.1151 50.5017 21.002 50.3885 21.002 50.252V44.25C21.0021 44.1135 21.1152 44.0002 21.251 44Z" fill="white" stroke="#00CCFF"/>
<circle cx="50" cy="50" r="10.5" stroke="#00CCFF" stroke-width="2"/>
<path d="M54.459 45.999C54.5615 45.8965 54.7292 45.9041 54.8184 46L54.8203 46.0029C55.8621 47.1148 56.4999 48.599 56.5 50.2441C56.5 53.7666 53.5906 56.6081 50.0498 56.4971H50.0488C46.6664 56.3928 43.9064 53.4579 44.0029 50.0723C44.0516 48.4958 44.6817 47.0727 45.6885 46.0029L45.6914 46C45.7806 45.9038 45.9415 45.8965 46.0439 45.999C46.1208 46.0761 46.1352 46.1994 46.0732 46.2969L46.042 46.3369L46.0381 46.3408C45.0862 47.3671 44.502 48.7401 44.502 50.252C44.502 53.4544 47.1122 56.0426 50.3232 55.9951L50.3242 55.9961V55.9951L50.3262 55.9961L50.3252 55.9951C53.3788 55.9626 55.9108 53.4215 55.999 50.3994L56 50.1055C55.9671 48.6502 55.391 47.3329 54.4619 46.3457L54.4609 46.3447L54.4287 46.3037C54.3641 46.2038 54.3781 46.08 54.459 45.999ZM50.251 44C50.3869 44 50.5009 44.1134 50.501 44.25V50.252C50.501 50.3887 50.387 50.502 50.251 50.502C50.1151 50.5017 50.002 50.3885 50.002 50.252V44.25C50.0021 44.1135 50.1152 44.0002 50.251 44Z" fill="white" stroke="#00CCFF"/>
<circle cx="79" cy="50" r="10.5" stroke="#00CCFF" stroke-width="2"/>
<path d="M83.459 45.999C83.5615 45.8965 83.7292 45.9041 83.8184 46L83.8203 46.0029C84.8621 47.1148 85.4999 48.599 85.5 50.2441C85.5 53.7666 82.5906 56.6081 79.0498 56.4971H79.0488C75.6664 56.3928 72.9064 53.4579 73.0029 50.0723C73.0516 48.4958 73.6817 47.0727 74.6885 46.0029L74.6914 46C74.7806 45.9038 74.9415 45.8965 75.0439 45.999C75.1208 46.0761 75.1352 46.1994 75.0732 46.2969L75.042 46.3369L75.0381 46.3408C74.0862 47.3671 73.502 48.7401 73.502 50.252C73.502 53.4544 76.1122 56.0426 79.3232 55.9951L79.3242 55.9961V55.9951L79.3262 55.9961L79.3252 55.9951C82.3788 55.9626 84.9108 53.4215 84.999 50.3994L85 50.1055C84.9671 48.6502 84.391 47.3329 83.4619 46.3457L83.4609 46.3447L83.4287 46.3037C83.3641 46.2038 83.3781 46.08 83.459 45.999ZM79.251 44C79.3869 44 79.5009 44.1134 79.501 44.25V50.252C79.501 50.3887 79.387 50.502 79.251 50.502C79.1151 50.5017 79.002 50.3885 79.002 50.252V44.25C79.0021 44.1135 79.1152 44.0002 79.251 44Z" fill="white" stroke="#00CCFF"/>
<path d="M74 93.8265V88.0662H77.164V89.0823H74.9157V90.3145H76.7601V91.3307H74.9157V92.8107H77.164V93.8269H74V93.8265Z" fill="white"/>
<path d="M77.8403 93.88V93.7441L80.1427 89.1358H78.0423V88.1196H81.7448V88.2555L79.4561 92.8557H81.6777V93.8796H77.8403V93.88Z" fill="white"/>
<path d="M82.6201 93.88V88.1196H83.5358V92.8638H85.6226V93.88H82.6201Z" fill="white"/>
<path d="M86.2617 88.9601V88H87.1774V88.9601H86.2617ZM86.2617 93.88V89.5597H87.1774V93.88H86.2617Z" fill="white"/>
<path d="M87.918 90.4001V89.5601H90.2471V90.4001H87.918ZM88.49 93.88V89.576C88.49 89.4667 88.4922 89.3426 88.4968 89.2041C88.5012 89.0657 88.5198 88.9254 88.5525 88.7839C88.5851 88.6425 88.645 88.5147 88.7327 88.3999C88.8448 88.2507 88.9666 88.1484 89.0978 88.0938C89.2292 88.0391 89.3563 88.0096 89.4799 88.0059C89.6033 88.0018 89.7089 88 89.7963 88H90.2474V88.8799H89.8301C89.6866 88.8799 89.58 88.9231 89.5104 89.0099C89.4408 89.0967 89.406 89.2001 89.406 89.3201V93.8804H88.4903L88.49 93.88Z" fill="white"/>
<path d="M92.3412 94C91.9686 94 91.6405 93.9047 91.3565 93.7138C91.0725 93.5233 90.8504 93.2604 90.69 92.9258C90.5297 92.5913 90.4492 92.2076 90.4492 91.776C90.4492 91.3041 90.5278 90.8934 90.6847 90.5438C90.8417 90.1945 91.0582 89.923 91.3345 89.7296C91.6104 89.5361 91.9279 89.4397 92.2871 89.4397C92.6687 89.4397 92.9927 89.5464 93.26 89.7598C93.5269 89.9733 93.7245 90.2731 93.8525 90.6597C93.9805 91.0463 94.0253 91.5012 93.987 92.0237H93.0816V91.6238C93.0816 91.1837 93.0226 90.8672 92.9048 90.6737C92.7871 90.4803 92.5947 90.3839 92.3275 90.3839C92.0155 90.3839 91.7862 90.4965 91.6393 90.7217C91.4923 90.947 91.4187 91.2797 91.4187 91.7198C91.4187 92.1227 91.492 92.434 91.6393 92.6537C91.7862 92.8738 92.0022 92.9838 92.2871 92.9838C92.4667 92.9838 92.6202 92.9373 92.7482 92.8438C92.8762 92.7504 92.9738 92.616 93.0409 92.4399L93.9566 92.7519C93.8196 93.1466 93.6036 93.4535 93.3087 93.6721C93.0136 93.8907 92.691 94 92.3409 94H92.3412ZM91.1362 92.0241V91.2162H93.5461V92.0241H91.1362Z" fill="white"/>
<path d="M56 94V88H57.5065V90.4665H61.0727V88H62.5793V94H61.0727V91.525H57.5065V94H56Z" fill="white"/>
<path d="M65.9795 94V89.0585H63.4653V88H70.0001V89.0585H67.486V94H65.9795Z" fill="white"/>
</svg>
