<svg width="32" height="32" viewBox="0 0 32 32" fill="none" xmlns="http://www.w3.org/2000/svg">
<path d="M15.2892 22.6442C14.7424 23.1909 14.0009 23.4982 13.2276 23.4983H9.73008C9.5655 23.4983 9.40255 23.4658 9.25056 23.4027C9.09858 23.3396 8.96056 23.2471 8.84442 23.1305C8.72828 23.0139 8.63631 22.8755 8.57379 22.7232C8.51126 22.571 8.47942 22.4079 8.48008 22.2433L8.49508 18.7625C8.49832 17.9933 8.80533 17.2565 9.34924 16.7125L17.8484 8.21418C18.3955 7.66769 19.1371 7.36065 19.9103 7.36049C20.6836 7.36034 21.4253 7.66708 21.9726 8.21335L23.7834 10.0233C24.0545 10.294 24.2697 10.6154 24.4165 10.9692C24.5634 11.323 24.6391 11.7022 24.6394 12.0853C24.6396 12.4684 24.5643 12.8478 24.4179 13.2018C24.2715 13.5557 24.0567 13.8774 23.7859 14.1483C23.7459 14.195 23.7192 14.2258 23.6801 14.2542L15.2892 22.6442ZM22.0626 12.3292C22.1197 12.2488 22.1464 12.1507 22.138 12.0524C22.1296 11.9542 22.0867 11.8621 22.0167 11.7925L20.2059 9.98251C20.1275 9.90455 20.0215 9.86079 19.9109 9.86079C19.8003 9.86079 19.6943 9.90455 19.6159 9.98251L11.1167 18.4808C11.039 18.5584 10.9949 18.6635 10.9942 18.7733L10.9842 20.9983H13.2259C13.2807 20.9984 13.3349 20.9877 13.3855 20.9669C13.4361 20.946 13.4821 20.9153 13.5209 20.8767L22.0617 12.3292H22.0626ZM6.83341 0.166687H25.1667C26.9348 0.166687 28.6305 0.869066 29.8808 2.11931C31.131 3.36955 31.8334 5.06524 31.8334 6.83335V25.1667C31.8334 26.9348 31.131 28.6305 29.8808 29.8807C28.6305 31.131 26.9348 31.8333 25.1667 31.8333H6.83341C5.0653 31.8333 3.36961 31.131 2.11937 29.8807C0.869127 28.6305 0.166748 26.9348 0.166748 25.1667V6.83335C0.166748 5.06524 0.869127 3.36955 2.11937 2.11931C3.36961 0.869066 5.0653 0.166687 6.83341 0.166687ZM6.83341 2.66669C5.72834 2.66669 4.66854 3.10567 3.88713 3.88707C3.10573 4.66847 2.66675 5.72828 2.66675 6.83335V25.1667C2.66675 26.2717 3.10573 27.3315 3.88713 28.1129C4.66854 28.8943 5.72834 29.3333 6.83341 29.3333H25.1667C26.2718 29.3333 27.3316 28.8943 28.113 28.1129C28.8944 27.3315 29.3334 26.2717 29.3334 25.1667V6.83335C29.3334 5.72828 28.8944 4.66847 28.113 3.88707C27.3316 3.10567 26.2718 2.66669 25.1667 2.66669H6.83341Z" fill="#F9F9F9"/>
</svg>
