<svg width="23" height="22" viewBox="0 0 23 22" fill="none" xmlns="http://www.w3.org/2000/svg">
<path d="M22.0444 10.8808C22.0444 5.06542 17.3301 0.353516 11.5171 0.353516C5.71143 0.353516 1.00195 5.05566 0.989746 10.8589V12.9853C0.989746 13.5664 1.46094 14.0376 2.04199 14.0376C2.62305 14.0376 3.09424 13.5664 3.09424 12.9853V10.8711C3.09668 9.73583 3.31885 8.6372 3.75586 7.60448C4.61279 5.58544 6.21924 3.97656 8.23828 3.12207C9.27588 2.68261 10.377 2.46045 11.5146 2.46045C12.6523 2.46045 13.7559 2.68261 14.791 3.12207C16.8101 3.979 18.4189 5.58544 19.2734 7.60448C19.7129 8.64208 19.9351 9.74315 19.9351 10.8808C19.9351 12.0185 19.7129 13.1221 19.2734 14.1572C18.4238 16.1787 16.8149 17.7851 14.7959 18.6421C13.7583 19.0815 12.6572 19.3037 11.5195 19.3037H3.09668V17.1992C3.09668 16.6181 2.62549 16.147 2.04443 16.147C1.46338 16.147 0.992187 16.6181 0.992187 17.1992V20.3584C0.992187 20.9394 1.46338 21.4106 2.04443 21.4106H11.6465C11.6685 21.4106 11.688 21.4106 11.7075 21.4082C17.4326 21.3056 22.0444 16.6328 22.0444 10.8808Z" fill="black"/>
</svg>
