<svg width="44" height="34" viewBox="0 0 44 34" fill="none" xmlns="http://www.w3.org/2000/svg">
<path d="M39.0156 4.4417H37.2568C37.356 4.15506 37.4109 3.84826 37.4109 3.52889C37.4109 1.94793 36.0898 0.666504 34.4605 0.666504C33.2029 0.666504 32.1298 1.4302 31.7049 2.50534C30.9082 2.16878 29.9464 2.31491 29.2948 2.94703C28.8693 3.35995 28.6564 3.90082 28.6564 4.4417H28.3599C27.419 4.4417 26.6562 5.18159 26.6562 6.0944C26.6562 7.0072 27.419 7.7471 28.3599 7.7471C28.3599 7.7471 34.5554 7.74908 39.015 7.75206C39.9575 7.75239 40.7216 7.0115 40.7216 6.09671C40.7216 5.18292 39.9579 4.4417 39.0156 4.4417Z" fill="#F0F5F7"/>
<path d="M40.7214 6.0977C40.7214 7.01117 39.9577 7.75239 39.0148 7.75239C38.8313 7.75239 38.6445 7.75239 38.4558 7.75173C38.4772 7.64858 38.4882 7.54245 38.4882 7.43335C38.4882 6.97645 38.2967 6.5632 37.9883 6.26334C37.6792 5.96348 37.2524 5.77834 36.7812 5.77834H35.0224C35.1223 5.4917 35.1771 5.18457 35.1771 4.86553C35.1771 3.28491 33.856 2.00314 32.2265 2.00314C32.1359 2.00314 32.046 2.00744 31.957 2.01538C32.4771 1.20539 33.4038 0.666504 34.4601 0.666504C36.0903 0.666504 37.4104 1.94826 37.4104 3.52889C37.4104 3.84892 37.3555 4.15506 37.2567 4.4417H39.0155C39.4866 4.4417 39.9124 4.6275 40.2215 4.9267C40.531 5.22656 40.7214 5.64081 40.7214 6.0977Z" fill="#DDE9ED"/>
<path d="M3.83843 7.60445C4.05266 4.17011 6.99109 1.44922 10.5851 1.44922C13.4839 1.44922 15.9558 3.21928 16.9166 5.70577C19.2801 5.73355 21.2108 7.50262 21.4092 9.7524H25.1701C25.028 8.50998 25.6839 7.25797 26.9052 6.66982C28.3783 5.96001 30.1477 6.47047 30.9948 7.80248C31.4953 7.47882 32.0963 7.29004 32.743 7.29004C34.275 7.29004 35.5518 8.34831 35.8398 9.7524H37.2303C38.5937 9.7524 39.6993 10.8246 39.6993 12.1473C39.6993 13.4697 38.5937 14.5422 37.2303 14.5422C37.2303 14.5422 5.04845 14.5644 3.96373 14.5644C1.98175 14.5644 0.375 13.0056 0.375 11.0828C0.375 9.20094 1.91463 7.66858 3.83843 7.60445Z" fill="#C4E1E8"/>
<path d="M0.375 11.0828C0.375 13.0059 1.98208 14.565 3.9634 14.565C4.11316 14.565 4.85571 14.565 6.02407 14.564C6.0201 14.5108 6.01878 14.4589 6.01878 14.406C6.01878 12.5232 7.55841 10.9918 9.48221 10.9274C9.6971 7.4927 12.6355 4.77247 16.2296 4.77247C16.3089 4.77247 16.3882 4.77346 16.4679 4.77611C15.3075 2.78983 13.1073 1.44922 10.5858 1.44922C6.99043 1.44922 4.052 4.17077 3.83843 7.60544C1.91463 7.66858 0.375 9.20127 0.375 11.0828Z" fill="#A4D5DD"/>
<path d="M7.48074 7.98319C7.46685 7.98319 7.4533 7.98285 7.43941 7.98186C7.07905 7.95938 6.80498 7.64894 6.82746 7.28858C6.93954 5.49041 8.47653 4.08203 10.3263 4.08203C10.6876 4.08203 10.9802 4.37462 10.9802 4.73564C10.9802 5.09699 10.6876 5.38958 10.3263 5.38958C9.16551 5.38958 8.20212 6.2594 8.1327 7.36991C8.11121 7.71672 7.82325 7.98319 7.48074 7.98319Z" fill="#C4E1E8"/>
<path d="M40.1083 12.4817C39.9135 9.36143 37.2439 6.88916 33.9785 6.88916C31.3449 6.88916 29.0991 8.49756 28.2263 10.7566C26.0787 10.7817 24.3248 12.3891 24.1446 14.4333H20.7275C20.8567 13.3046 20.2606 12.167 19.1515 11.6327C17.8128 10.9877 16.2051 11.4515 15.4358 12.6615C14.9809 12.3676 14.4347 12.1961 13.8472 12.1961C12.4554 12.1961 11.2956 13.1575 11.0338 14.4333H9.77051C8.53173 14.4333 7.52734 15.4076 7.52734 16.6093C7.52734 17.8111 8.53173 18.785 9.77051 18.785C9.77051 18.785 39.0087 18.8052 39.9942 18.8052C41.795 18.8052 43.2546 17.3892 43.2546 15.6423C43.2546 13.9321 41.8558 12.5402 40.1083 12.4817Z" fill="#A0ECFF"/>
<path d="M43.2535 15.64C43.2535 17.3873 41.7933 18.8039 39.9934 18.8039C39.8572 18.8039 39.1828 18.8039 38.1212 18.8029C38.1248 18.7546 38.1258 18.7074 38.1258 18.6591C38.1258 16.9485 36.7274 15.557 34.9795 15.4985C34.7841 12.3782 32.1144 9.9063 28.8494 9.9063C28.777 9.9063 28.7049 9.90763 28.6328 9.90994C29.6871 8.10516 31.686 6.88721 33.9771 6.88721C37.2431 6.88721 39.9128 9.35981 40.1068 12.4804C41.8547 12.5379 43.2535 13.9304 43.2535 15.64Z" fill="#60DAFF"/>
<path d="M36.7998 12.8838C36.457 12.8838 36.1694 12.6174 36.1475 12.2706C36.0867 11.2933 35.2374 10.5276 34.2145 10.5276C33.8531 10.5276 33.5605 10.2347 33.5605 9.87367C33.5605 9.51264 33.8531 9.21973 34.2145 9.21973C35.9267 9.21973 37.349 10.524 37.4528 12.1892C37.4756 12.5499 37.2015 12.8604 36.8412 12.8828C36.8273 12.8835 36.8134 12.8838 36.7998 12.8838Z" fill="#A0ECFF"/>
<path d="M14.4138 18.0665C14.2809 16.5605 12.9889 15.376 11.4066 15.3575C10.7636 13.6932 9.10861 12.5083 7.16861 12.5083C4.76279 12.5083 2.79568 14.3299 2.6522 16.6286C1.36448 16.6716 0.333984 17.6975 0.333984 18.9571C0.333984 20.2442 1.40945 21.2875 2.73617 21.2875C3.46251 21.2875 42.0145 21.273 42.0145 21.273C42.9273 21.273 43.6669 20.5549 43.6669 19.6696C43.6669 18.7842 42.9273 18.0665 42.0145 18.0665H39.4483C39.4586 17.959 39.4645 17.8502 39.4645 17.7405C39.4645 15.8197 37.8594 14.2628 35.8798 14.2628C34.2668 14.2628 32.9027 15.2963 32.4527 16.7182C32.132 16.5278 31.7551 16.4181 31.3515 16.4181C30.3263 16.4181 29.4716 17.1265 29.2786 18.0665H14.4138Z" fill="#DDE9ED"/>
<path d="M43.6681 19.6686C43.6681 20.5543 42.9279 21.2717 42.0158 21.2717C42.0158 21.2717 41.8161 21.2717 41.4448 21.2717V21.2658C41.4448 20.8224 41.26 20.4224 40.9608 20.1321C40.6616 19.8422 40.2483 19.6627 39.7924 19.6627H37.2256C37.2362 19.5556 37.2421 19.4465 37.2421 19.3364C37.2421 17.4152 35.6371 15.8591 33.6577 15.8591C33.3622 15.8591 33.0752 15.8938 32.8008 15.9596C33.426 14.9419 34.5715 14.2612 35.881 14.2612C37.8604 14.2612 39.4655 15.8184 39.4655 17.7392C39.4655 17.8493 39.4592 17.9574 39.4489 18.0649H42.0158C42.4717 18.0649 42.8849 18.2444 43.1841 18.5343C43.483 18.8246 43.6681 19.2256 43.6681 19.6686Z" fill="#C4E1E8"/>
<path d="M12.9573 24.4676C13.8106 24.4676 14.5816 24.8191 15.1344 25.3844C15.6815 24.0712 16.9563 23.1376 18.4553 23.086C18.6785 19.3988 21.7386 16.4775 25.4817 16.4775C28.5008 16.4775 31.0752 18.3779 32.0756 21.0475C34.3132 21.0743 36.1775 22.646 36.6542 24.7453C37.041 24.5675 37.4711 24.4676 37.9247 24.4676C39.6065 24.4676 40.9699 25.8307 40.9699 27.5125C40.9699 29.1943 39.6065 30.5577 37.9247 30.5577C36.8555 30.5577 14.0784 30.5577 12.9573 30.5577C11.2755 30.5577 9.91211 29.1943 9.91211 27.5125C9.91211 25.8307 11.2755 24.4676 12.9573 24.4676Z" fill="#A0ECFF"/>
<path d="M40.9703 27.5122C40.9703 29.0948 39.7639 30.3951 38.2193 30.5432C38.3572 30.196 38.4326 29.8182 38.4326 29.4231C38.4326 27.7416 37.0701 26.3782 35.3874 26.3782C34.9341 26.3782 34.5036 26.4777 34.1172 26.6556C33.6408 24.5562 31.7758 22.9845 29.5386 22.9574C28.5379 20.2881 25.9638 18.3881 22.945 18.3881C21.9274 18.3881 20.9607 18.6037 20.0879 18.9921C21.3802 17.4545 23.3173 16.4775 25.4827 16.4775C28.5015 16.4775 31.0753 18.3772 32.076 21.0468C34.3132 21.0736 36.1785 22.6453 36.6546 24.7447C37.041 24.5671 37.4715 24.4673 37.9251 24.4673C39.6075 24.4673 40.9703 25.8301 40.9703 27.5122Z" fill="#60DAFF"/>
<path d="M42.0145 30.2574H40.0474C39.8378 29.3389 38.9938 28.6519 37.9841 28.6519C37.7999 28.6519 37.6211 28.6751 37.4505 28.7181C36.943 27.3956 35.6305 26.4534 34.0905 26.4534C32.4005 26.4534 30.9845 27.5884 30.6059 29.1151C30.3911 28.9852 30.1381 28.9092 29.8664 28.9092C29.0964 28.9092 28.4716 29.5115 28.4649 30.2574H23.0374C22.6972 29.5664 21.9705 29.0887 21.1288 29.0887C20.5919 29.0887 20.1023 29.2834 19.7293 29.6031C19.5617 28.2119 18.3434 27.1321 16.8643 27.1321C15.5455 27.1321 14.434 27.9911 14.0899 29.1634C13.589 28.2149 12.5777 27.5623 11.4066 27.5484C10.7636 25.8841 9.10894 24.6992 7.16861 24.6992C4.76279 24.6992 2.79601 26.5205 2.65253 28.8196C1.36448 28.8625 0.333984 29.8881 0.333984 31.148C0.333984 32.4351 1.40945 33.4785 2.73617 33.4785C3.46251 33.4785 42.0145 33.4636 42.0145 33.4636C42.9273 33.4636 43.6669 32.7458 43.6669 31.8605C43.6672 30.9751 42.9273 30.2574 42.0145 30.2574Z" fill="#C4E1E8"/>
<path d="M43.6668 31.8603C43.6668 32.746 42.9266 33.4641 42.0138 33.4641C42.0138 33.4641 41.5202 33.4641 40.6431 33.4651C40.6441 33.4565 40.6441 33.4482 40.6441 33.4397C40.6441 32.9963 40.4593 32.5963 40.1601 32.3063C39.8609 32.0161 39.4476 31.8369 38.9917 31.8369H37.0246C36.8147 30.9181 35.9706 30.2311 34.9609 30.2311C34.7771 30.2311 34.5983 30.2543 34.4273 30.2972C33.9225 28.9804 32.6199 28.0415 31.0879 28.0329C31.727 27.0821 32.8325 26.4536 34.0898 26.4536C35.6298 26.4536 36.9426 27.3958 37.4501 28.7179C37.6203 28.675 37.7989 28.6521 37.9837 28.6521C38.9933 28.6521 39.8374 29.3388 40.0467 30.2576H42.0138C42.4697 30.2576 42.8829 30.4368 43.1828 30.727C43.482 31.017 43.6668 31.418 43.6668 31.8603Z" fill="#A4D5DD"/>
</svg>
