<svg width="44" height="38" viewBox="0 0 44 38" fill="none" xmlns="http://www.w3.org/2000/svg">
<path d="M22.1277 11.4363C22.128 17.902 16.8998 23.1302 10.4342 23.1302C6.22559 23.1302 2.53604 20.9068 0.477035 17.5704C0.0165031 16.8245 0.744164 15.9045 1.5753 16.1828C2.64481 16.5415 3.78969 16.7359 4.9802 16.7373C10.9066 16.7429 15.7348 11.919 15.7348 5.99261C15.7348 4.79846 15.54 3.64994 15.1803 2.5768C14.902 1.74599 15.8227 1.01866 16.5682 1.47886C19.9044 3.53853 22.1277 7.22774 22.1277 11.4363Z" fill="#F6CB43"/>
<path d="M22.1278 11.4376C22.1278 17.8953 16.892 23.1311 10.4343 23.1311C6.46307 23.1311 2.95403 21.1517 0.841797 18.1254C2.73682 19.4481 5.0418 20.2237 7.52695 20.2237C13.9847 20.2237 19.2204 14.9879 19.2204 8.5299C19.2204 6.04342 18.4445 3.73845 17.1214 1.84375C20.1485 3.95697 22.1278 7.46535 22.1278 11.4376Z" fill="#FAB03C"/>
<path d="M37.62 24.8875C37.2458 18.7068 32.1158 13.8096 25.8409 13.8096C20.7803 13.8096 16.4643 16.9953 14.7868 21.4703C10.4291 21.5229 6.91211 25.07 6.91211 29.4406C6.91211 33.8436 10.4816 37.4131 14.8846 37.4131H37.4011C40.8612 37.4131 43.6668 34.6079 43.6668 31.1475C43.6668 27.7604 40.9789 25.0029 37.62 24.8875Z" fill="#1E6BE7"/>
<path d="M43.6683 31.1471C43.6683 34.6072 40.8624 37.4131 37.4023 37.4131H36.9167C37.3709 36.5456 37.6281 35.5581 37.6281 34.5117C37.6281 31.1247 34.9406 28.3668 31.5814 28.251C31.2074 22.0707 26.0771 17.1731 19.8019 17.1731C18.9559 17.1731 18.1307 17.2621 17.3359 17.4313C19.4826 15.1991 22.4997 13.8096 25.8421 13.8096C32.1169 13.8096 37.2473 18.7062 37.6215 24.8878C40.9805 25.0022 43.6683 27.7601 43.6683 31.1471Z" fill="#3E4EB7"/>
<path d="M34.4957 24.1764C34.2001 24.1764 33.9323 23.9748 33.8603 23.6749C33.7512 23.22 33.6014 22.7714 33.4153 22.3416C33.2718 22.0103 33.4245 21.6251 33.7558 21.4817C34.0877 21.3382 34.4722 21.4909 34.6157 21.8222C34.8316 22.3211 35.0051 22.8414 35.1321 23.3694C35.2164 23.7205 35.0002 24.0736 34.6491 24.1579C34.5975 24.1705 34.5463 24.1764 34.4957 24.1764Z" fill="#1E6BE7"/>
<path d="M32.2667 20.1062C32.0948 20.1062 31.9232 20.0391 31.795 19.9052C30.221 18.2654 28.1064 17.3622 25.8411 17.3622C25.4801 17.3622 25.1875 17.0696 25.1875 16.7083C25.1875 16.3473 25.4801 16.0547 25.8411 16.0547C28.4661 16.0547 30.9156 17.1004 32.7385 18.9997C32.9884 19.2602 32.9799 19.6741 32.7197 19.9244C32.5927 20.0457 32.4294 20.1062 32.2667 20.1062Z" fill="#1E6BE7"/>
<path d="M5.19603 28.4581C5.46316 24.0392 9.13089 20.5381 13.6169 20.5381C17.2347 20.5381 20.3205 22.8156 21.5196 26.0149C24.6353 26.0526 27.1495 28.5886 27.1495 31.7129C27.1495 34.8609 24.5976 37.4128 21.4496 37.4128C20.1318 37.4128 6.70624 37.4128 5.35241 37.4128C2.87849 37.4128 0.873047 35.4074 0.873047 32.9334C0.873047 30.5121 2.79452 28.5407 5.19603 28.4581Z" fill="#38AAFF"/>
<path d="M27.1492 31.7132C27.1492 34.8338 24.6396 37.3688 21.5276 37.4112C22.4606 36.3959 23.0295 35.043 23.0295 33.5566C23.0295 30.4328 20.5156 27.8964 17.3993 27.8583C16.2002 24.6597 13.115 22.3819 9.49656 22.3819C9.06909 22.3819 8.64922 22.4139 8.23828 22.4754C9.6979 21.2651 11.5718 20.5381 13.6159 20.5381C17.2347 20.5381 20.3196 22.815 21.5187 26.0146C24.635 26.0526 27.1492 28.588 27.1492 31.7132Z" fill="#2081F6"/>
<path d="M38.9684 15.1233C38.9674 15.1233 38.9664 15.1233 38.9651 15.1233C38.6041 15.1217 38.3128 14.8274 38.3145 14.4661L38.3158 14.2102C38.3174 13.8502 38.61 13.5596 38.9697 13.5596H38.973C39.334 13.5612 39.6253 13.8555 39.6237 14.2168L39.6223 14.4727C39.6207 14.8327 39.3281 15.1233 38.9684 15.1233Z" fill="#F6CB43"/>
<path d="M38.9606 17.7311C38.9596 17.7311 38.9586 17.7311 38.9576 17.7311C38.5963 17.7294 38.305 17.4352 38.3066 17.0742L38.3076 16.818C38.3096 16.4579 38.6019 16.167 38.9616 16.167H38.9649C39.3259 16.1686 39.6172 16.4629 39.6155 16.8239L39.6145 17.0801C39.6129 17.4405 39.3203 17.7311 38.9606 17.7311Z" fill="#F6CB43"/>
<path d="M40.3988 16.3043C40.3978 16.3043 40.3968 16.3043 40.3958 16.3043L40.1389 16.303C39.7779 16.3013 39.4866 16.0071 39.4883 15.6461C39.4899 15.286 39.7822 14.9951 40.1419 14.9951H40.1452L40.4018 14.9964C40.7631 14.9981 41.0544 15.292 41.0527 15.6534C41.0511 16.0134 40.7588 16.3043 40.3988 16.3043Z" fill="#F6CB43"/>
<path d="M37.7874 16.2952C37.7865 16.2952 37.7855 16.2952 37.7845 16.2952L37.5276 16.2942C37.1666 16.2925 36.8753 15.9983 36.877 15.6373C36.8786 15.2769 37.1709 14.9863 37.5306 14.9863H37.5339L37.7904 14.9873C38.1514 14.9893 38.443 15.2832 38.4414 15.6446C38.4397 16.0046 38.1471 16.2952 37.7874 16.2952Z" fill="#F6CB43"/>
<path d="M35.4547 10.5374C35.4534 10.5374 35.4527 10.5374 35.4514 10.5374C35.0904 10.5357 34.7988 10.2415 34.8008 9.88048L34.8018 9.62426C34.8034 9.26423 35.096 8.97363 35.4557 8.97363H35.4587C35.82 8.97529 36.1113 9.26919 36.1097 9.63054L36.1083 9.88643C36.1067 10.2468 35.8141 10.5374 35.4547 10.5374Z" fill="#FAB03C"/>
<path d="M35.445 13.1442C35.444 13.1442 35.443 13.1442 35.442 13.1442C35.0806 13.1425 34.7894 12.8483 34.791 12.4873L34.7923 12.231C34.794 11.8697 35.0849 11.5801 35.4493 11.5801C35.8103 11.5817 36.1019 11.876 36.1002 12.237L36.0989 12.4932C36.0972 12.8532 35.8047 13.1442 35.445 13.1442Z" fill="#FAB03C"/>
<path d="M36.8851 11.7174C36.8841 11.7174 36.8831 11.7174 36.8821 11.7174L36.6252 11.7161C36.2642 11.7141 35.973 11.4202 35.9746 11.0588C35.9763 10.6988 36.2689 10.4082 36.6286 10.4082H36.6315L36.8884 10.4095C37.2494 10.4112 37.5407 10.7054 37.539 11.0664C37.5374 11.4265 37.2448 11.7174 36.8851 11.7174Z" fill="#FAB03C"/>
<path d="M34.2718 11.7096C34.2708 11.7096 34.2698 11.7096 34.2685 11.7096L34.012 11.7083C33.6509 11.7066 33.3597 11.4124 33.3613 11.0514C33.363 10.6913 33.6556 10.4004 34.0149 10.4004H34.0182L34.2748 10.4017C34.6361 10.4037 34.9274 10.6976 34.9258 11.059C34.9241 11.419 34.6315 11.7096 34.2718 11.7096Z" fill="#FAB03C"/>
<path d="M24.0289 2.23108C24.0276 2.23108 24.027 2.23108 24.0256 2.23108C23.6646 2.2291 23.3734 1.93519 23.375 1.57384L23.376 1.31795C23.3777 0.957924 23.6702 0.666992 24.0299 0.666992H24.0329C24.3943 0.668645 24.6855 0.962883 24.6839 1.3239L24.6825 1.58012C24.6809 1.94015 24.3886 2.23108 24.0289 2.23108Z" fill="#F6CB43"/>
<path d="M24.0211 4.83817C24.0201 4.83817 24.0191 4.83817 24.0182 4.83817C23.6568 4.83652 23.3655 4.54261 23.3672 4.18126L23.3685 3.92537C23.3702 3.56502 23.6628 3.27441 24.0221 3.27441H24.0254C24.3864 3.27607 24.678 3.56997 24.6761 3.93133L24.6751 4.18721C24.6734 4.54757 24.3808 4.83817 24.0211 4.83817Z" fill="#F6CB43"/>
<path d="M25.4616 3.41076C25.4603 3.41076 25.4593 3.41076 25.4583 3.41076L25.2017 3.40943C24.8404 3.40778 24.5491 3.11354 24.5508 2.75252C24.5524 2.39117 24.845 2.10288 25.208 2.10156L25.4646 2.10288C25.8256 2.10487 26.1169 2.39878 26.1152 2.76013C26.1136 3.12016 25.8213 3.41076 25.4616 3.41076Z" fill="#F6CB43"/>
<path d="M22.8483 3.40294C22.847 3.40294 22.846 3.40294 22.845 3.40294L22.5885 3.40162C22.2271 3.39997 21.9359 3.10606 21.9375 2.74471C21.9392 2.38468 22.2317 2.09375 22.5914 2.09375H22.5944L22.8513 2.09507C23.2123 2.09673 23.5036 2.39096 23.5019 2.75198C23.5003 3.11201 23.208 3.40294 22.8483 3.40294Z" fill="#F6CB43"/>
<path d="M4.31996 11.2132C4.31897 11.2132 4.31798 11.2132 4.31698 11.2132C3.95563 11.2115 3.66437 10.9176 3.66602 10.5563L3.66735 10.3004C3.669 9.94002 3.96125 9.64941 4.32095 9.64941H4.32426C4.68528 9.65107 4.97654 9.94497 4.97489 10.3063L4.9739 10.5622C4.97224 10.9226 4.67966 11.2132 4.31996 11.2132Z" fill="#F6CB43"/>
<path d="M4.31215 13.8196C4.31115 13.8196 4.31016 13.8196 4.30917 13.8196C3.94782 13.818 3.65656 13.5237 3.65821 13.1624L3.65953 12.9065C3.66152 12.5465 3.95377 12.2559 4.31347 12.2559H4.31677C4.67779 12.2575 4.96906 12.5518 4.9674 12.9128L4.96608 13.169C4.96443 13.529 4.67184 13.8196 4.31215 13.8196Z" fill="#F6CB43"/>
<path d="M5.75067 12.3932C5.74967 12.3932 5.74835 12.3932 5.74736 12.3932L5.49081 12.3919C5.12979 12.3902 4.8382 12.096 4.83985 11.7349C4.84183 11.3749 5.13409 11.084 5.49379 11.084H5.49709L5.75364 11.0853C6.11466 11.087 6.40592 11.3809 6.40427 11.7422C6.40262 12.1022 6.11036 12.3932 5.75067 12.3932Z" fill="#F6CB43"/>
<path d="M3.13934 12.385C3.13835 12.385 3.13735 12.385 3.13603 12.385L2.87948 12.384C2.51846 12.3824 2.22687 12.0882 2.22852 11.7271C2.23018 11.3668 2.52276 11.0762 2.88246 11.0762H2.88543L3.14231 11.0772C3.50333 11.0791 3.79493 11.3731 3.79294 11.7344C3.79129 12.0944 3.49904 12.385 3.13934 12.385Z" fill="#F6CB43"/>
</svg>
