<svg width="44" height="44" viewBox="0 0 44 44" fill="none" xmlns="http://www.w3.org/2000/svg">
<path d="M37.2125 11.4509C36.8369 5.24821 31.6885 0.333496 25.3912 0.333496C20.3125 0.333496 15.981 3.5304 14.2975 8.02162C9.92402 8.07451 6.39453 11.6341 6.39453 16.0202C6.39453 20.4393 9.97692 24.0217 14.3957 24.0217H36.9926C40.4656 24.0217 43.2806 21.2063 43.2806 17.7337C43.2806 14.3344 40.5833 11.567 37.2125 11.4509Z" fill="#6D6D6D"/>
<path d="M43.282 17.733C43.282 21.2056 40.4663 24.0217 36.9937 24.0217H36.5064C36.9623 23.1512 37.2205 22.1601 37.2205 21.1098C37.2205 17.7109 34.5231 14.9431 31.152 14.8267C30.7764 8.6243 25.6276 3.70893 19.3303 3.70893C18.481 3.70893 17.6532 3.79852 16.8555 3.96812C19.0097 1.72797 22.0376 0.333496 25.3919 0.333496C31.6895 0.333496 36.8383 5.24754 37.2139 11.4513C40.585 11.5663 43.282 14.3341 43.282 17.733Z" fill="#565656"/>
<path d="M34.0794 10.736C33.7838 10.736 33.516 10.5347 33.444 10.2348C33.3342 9.77796 33.1841 9.32768 32.9973 8.89624C32.8539 8.56465 33.0063 8.17983 33.3379 8.03635C33.6691 7.89287 34.0543 8.04561 34.1974 8.37687C34.414 8.87707 34.5882 9.39942 34.7155 9.92904C34.8001 10.2805 34.5839 10.6336 34.2325 10.7179C34.1812 10.7301 34.13 10.736 34.0794 10.736Z" fill="#6D6D6D"/>
<path d="M31.8406 6.65063C31.6687 6.65063 31.4974 6.58318 31.3688 6.44929C29.7889 4.80323 27.6664 3.89672 25.3922 3.89672C25.0312 3.89672 24.7383 3.60381 24.7383 3.2428C24.7383 2.88145 25.0312 2.58887 25.3922 2.58887C28.0258 2.58887 30.4835 3.63819 32.3123 5.54378C32.5626 5.80429 32.554 6.2182 32.2935 6.46847C32.1665 6.59013 32.0036 6.65063 31.8406 6.65063Z" fill="#6D6D6D"/>
<path d="M4.67246 15.0344C4.94091 10.6 8.62148 7.08643 13.1236 7.08643C16.7546 7.08643 19.851 9.37187 21.0544 12.5827C24.1812 12.6204 26.7047 15.1656 26.7047 18.3011C26.7047 21.4603 24.1435 24.0214 20.9843 24.0214C19.6619 24.0214 6.18826 24.0214 4.82949 24.0214C2.34668 24.0214 0.333984 22.0087 0.333984 19.5259C0.333984 17.0957 2.26238 15.1174 4.67246 15.0344Z" fill="#A09D9C"/>
<path d="M26.7047 18.3011C26.7047 21.4332 24.1862 23.9775 21.0633 24.0198C21.9996 23.0009 22.5705 21.6431 22.5705 20.1514C22.5705 17.016 20.0477 14.4711 16.9202 14.433C15.7169 11.2229 12.6204 8.93647 8.98913 8.93647C8.56001 8.93647 8.13882 8.96887 7.72656 9.03036C9.19112 7.81573 11.0719 7.08643 13.1233 7.08643C16.7546 7.08643 19.851 9.37121 21.0544 12.5827C24.1819 12.6207 26.7047 15.1647 26.7047 18.3011Z" fill="#82807F"/>
<path d="M9.49044 30.0108C9.49044 30.9973 8.69072 31.797 7.7042 31.797C6.71769 31.797 5.91797 30.9973 5.91797 30.0108C5.91797 29.3634 6.68728 28.0926 7.21591 27.2955C7.44799 26.9464 7.96042 26.9464 8.19217 27.2955C8.72113 28.0926 9.49044 29.3634 9.49044 30.0108Z" fill="#A0ECFF"/>
<path d="M9.489 30.0108C9.489 30.9969 8.68994 31.797 7.7031 31.797C7.45581 31.797 7.22009 31.7464 7.00586 31.6555C7.64623 31.3844 8.09519 30.7496 8.09519 30.0108C8.09519 29.4448 7.50738 28.4024 7.00652 27.6165C7.07793 27.5038 7.14802 27.3967 7.21414 27.2965C7.44622 26.9467 7.95898 26.9458 8.19106 27.2955C8.72002 28.0926 9.489 29.3634 9.489 30.0108Z" fill="#60DAFF"/>
<path d="M17.549 30.0108C17.549 30.9973 16.7493 31.797 15.7628 31.797C14.7763 31.797 13.9766 30.9973 13.9766 30.0108C13.9766 29.3634 14.7459 28.0926 15.2745 27.2955C15.5066 26.9464 16.019 26.9464 16.2508 27.2955C16.7797 28.0926 17.549 29.3634 17.549 30.0108Z" fill="#A0ECFF"/>
<path d="M17.5495 30.0108C17.5495 30.9969 16.7505 31.797 15.7636 31.797C15.5164 31.797 15.281 31.7464 15.0664 31.6555C15.7068 31.3844 16.1557 30.7496 16.1557 30.0108C16.1557 29.4448 15.5679 28.4024 15.0671 27.6165C15.1388 27.5038 15.2086 27.3967 15.2747 27.2965C15.5068 26.9467 16.0195 26.9458 16.2516 27.2955C16.7806 28.0926 17.5495 29.3634 17.5495 30.0108Z" fill="#60DAFF"/>
<path d="M25.6096 30.0108C25.6096 30.9973 24.8099 31.797 23.8233 31.797C22.8368 31.797 22.0371 30.9973 22.0371 30.0108C22.0371 29.3634 22.8064 28.0926 23.3354 27.2955C23.5671 26.9464 24.0796 26.9464 24.3113 27.2955C24.8406 28.0926 25.6096 29.3634 25.6096 30.0108Z" fill="#A0ECFF"/>
<path d="M25.6085 30.0108C25.6085 30.9969 24.8091 31.797 23.8222 31.797C23.5749 31.797 23.3396 31.7464 23.125 31.6555C23.7654 31.3844 24.2143 30.7496 24.2143 30.0108C24.2143 29.4448 23.6265 28.4024 23.1257 27.6165C23.1974 27.5038 23.2672 27.3967 23.3336 27.2965C23.5654 26.9467 24.0785 26.9458 24.3105 27.2955C24.8392 28.0926 25.6085 29.3634 25.6085 30.0108Z" fill="#60DAFF"/>
<path d="M33.6682 30.0108C33.6682 30.9973 32.8684 31.797 31.8819 31.797C30.8954 31.797 30.0957 30.9973 30.0957 30.0108C30.0957 29.3634 30.865 28.0926 31.394 27.2955C31.6257 26.9464 32.1385 26.9464 32.3699 27.2955C32.8992 28.0926 33.6682 29.3634 33.6682 30.0108Z" fill="#A0ECFF"/>
<path d="M33.669 30.0108C33.669 30.9969 32.8696 31.797 31.8828 31.797C31.6355 31.797 31.4001 31.7464 31.1855 31.6555C31.8263 31.3844 32.2749 30.7496 32.2749 30.0108C32.2749 29.4448 31.6871 28.4024 31.1862 27.6165C31.2579 27.5038 31.328 27.3967 31.3942 27.2965C31.6259 26.9467 32.139 26.9458 32.3711 27.2955C32.8997 28.0926 33.669 29.3634 33.669 30.0108Z" fill="#60DAFF"/>
<path d="M9.49044 41.8808C9.49044 42.8673 8.69072 43.667 7.7042 43.667C6.71769 43.667 5.91797 42.8673 5.91797 41.8808C5.91797 41.2335 6.68728 39.963 7.21591 39.1659C7.44799 38.8164 7.96042 38.8164 8.19217 39.1659C8.72113 39.963 9.49044 41.2335 9.49044 41.8808Z" fill="#A0ECFF"/>
<path d="M9.489 41.8812C9.489 42.8673 8.68994 43.6671 7.7031 43.6671C7.45581 43.6671 7.22009 43.6168 7.00586 43.5259C7.64623 43.2545 8.09519 42.6201 8.09519 41.8808C8.09519 41.3148 7.50738 40.2725 7.00652 39.4866C7.07793 39.3742 7.14802 39.2668 7.21414 39.1669C7.44622 38.8168 7.95898 38.8158 8.19106 39.1656C8.72002 39.963 9.489 41.2335 9.489 41.8812Z" fill="#60DAFF"/>
<path d="M17.549 41.8808C17.549 42.8673 16.7493 43.667 15.7628 43.667C14.7763 43.667 13.9766 42.8673 13.9766 41.8808C13.9766 41.2335 14.7459 39.963 15.2745 39.1659C15.5066 38.8164 16.019 38.8164 16.2508 39.1659C16.7797 39.963 17.549 41.2335 17.549 41.8808Z" fill="#A0ECFF"/>
<path d="M17.5495 41.8812C17.5495 42.8673 16.7505 43.6671 15.7636 43.6671C15.5164 43.6671 15.281 43.6168 15.0664 43.5259C15.7068 43.2545 16.1557 42.6201 16.1557 41.8808C16.1557 41.3148 15.5679 40.2725 15.0671 39.4866C15.1388 39.3742 15.2086 39.2668 15.2747 39.1669C15.5068 38.8168 16.0195 38.8158 16.2516 39.1656C16.7806 39.963 17.5495 41.2335 17.5495 41.8812Z" fill="#60DAFF"/>
<path d="M25.6096 41.8808C25.6096 42.8673 24.8099 43.667 23.8233 43.667C22.8368 43.667 22.0371 42.8673 22.0371 41.8808C22.0371 41.2335 22.8064 39.963 23.3354 39.1659C23.5671 38.8164 24.0796 38.8164 24.3113 39.1659C24.8406 39.963 25.6096 41.2335 25.6096 41.8808Z" fill="#A0ECFF"/>
<path d="M25.6085 41.8812C25.6085 42.8673 24.8091 43.6671 23.8222 43.6671C23.5749 43.6671 23.3396 43.6168 23.125 43.5259C23.7654 43.2545 24.2143 42.6201 24.2143 41.8808C24.2143 41.3148 23.6265 40.2725 23.1257 39.4866C23.1974 39.3742 23.2672 39.2668 23.3336 39.1669C23.5654 38.8168 24.0785 38.8158 24.3105 39.1656C24.8392 39.963 25.6085 41.2335 25.6085 41.8812Z" fill="#60DAFF"/>
<path d="M33.6682 41.8808C33.6682 42.8673 32.8684 43.667 31.8819 43.667C30.8954 43.667 30.0957 42.8673 30.0957 41.8808C30.0957 41.2335 30.865 39.963 31.394 39.1659C31.6257 38.8164 32.1385 38.8164 32.3699 39.1659C32.8992 39.963 33.6682 41.2335 33.6682 41.8808Z" fill="#A0ECFF"/>
<path d="M33.669 41.8812C33.669 42.8673 32.8696 43.6671 31.8828 43.6671C31.6355 43.6671 31.4001 43.6168 31.1855 43.5259C31.8263 43.2545 32.2749 42.6201 32.2749 41.8808C32.2749 41.3148 31.6871 40.2725 31.1862 39.4866C31.2579 39.3742 31.328 39.2668 31.3942 39.1669C31.6259 38.8168 32.139 38.8158 32.3711 39.1656C32.8997 39.963 33.669 41.2335 33.669 41.8812Z" fill="#60DAFF"/>
<path d="M13.5197 35.877C13.5197 36.8635 12.72 37.6632 11.7335 37.6632C10.747 37.6632 9.94727 36.8635 9.94727 35.877C9.94727 35.2296 10.7166 33.9588 11.2452 33.1617C11.477 32.8126 11.9897 32.8126 12.2215 33.1617C12.7504 33.9588 13.5197 35.2296 13.5197 35.877Z" fill="#A0ECFF"/>
<path d="M13.5186 35.877C13.5186 36.8631 12.7192 37.6632 11.7324 37.6632C11.4851 37.6632 11.2497 37.6126 11.0352 37.5217C11.6759 37.2506 12.1245 36.6159 12.1245 35.877C12.1245 35.311 11.537 34.2686 11.0358 33.4828C11.1076 33.37 11.1776 33.2629 11.2438 33.1627C11.4755 32.813 11.9886 32.812 12.2207 33.1617C12.7493 33.9588 13.5186 35.2293 13.5186 35.877Z" fill="#60DAFF"/>
<path d="M21.5803 35.877C21.5803 36.8635 20.7806 37.6632 19.794 37.6632C18.8075 37.6632 18.0078 36.8635 18.0078 35.877C18.0078 35.2296 18.7771 33.9588 19.3058 33.1617C19.5375 32.8126 20.0503 32.8126 20.282 33.1617C20.811 33.9588 21.5803 35.2296 21.5803 35.877Z" fill="#A0ECFF"/>
<path d="M21.5792 35.877C21.5792 36.8631 20.7798 37.6632 19.7933 37.6632C19.5457 37.6632 19.3103 37.6126 19.0957 37.5217C19.7364 37.2506 20.185 36.6159 20.185 35.877C20.185 35.311 19.5976 34.2686 19.0964 33.4828C19.1681 33.37 19.2382 33.2629 19.3043 33.1627C19.5361 32.813 20.0492 32.812 20.2812 33.1617C20.8099 33.9588 21.5792 35.2293 21.5792 35.877Z" fill="#60DAFF"/>
<path d="M29.6389 35.877C29.6389 36.8635 28.8392 37.6632 27.8526 37.6632C26.8661 37.6632 26.0664 36.8635 26.0664 35.877C26.0664 35.2296 26.8357 33.9588 27.3643 33.1617C27.5961 32.8126 28.1089 32.8126 28.3406 33.1617C28.8696 33.9588 29.6389 35.2296 29.6389 35.877Z" fill="#A0ECFF"/>
<path d="M29.6397 35.877C29.6397 36.8631 28.8403 37.6632 27.8538 37.6632C27.6065 37.6632 27.3708 37.6126 27.1562 37.5217C27.797 37.2506 28.2456 36.6159 28.2456 35.877C28.2456 35.311 27.6581 34.2686 27.1569 33.4828C27.2287 33.37 27.2987 33.2629 27.3649 33.1627C27.5966 32.813 28.1097 32.812 28.3418 33.1617C28.8704 33.9588 29.6397 35.2293 29.6397 35.877Z" fill="#60DAFF"/>
<path d="M37.6994 35.877C37.6994 36.8635 36.8997 37.6632 35.9132 37.6632C34.9267 37.6632 34.127 36.8635 34.127 35.877C34.127 35.2296 34.8963 33.9588 35.4249 33.1617C35.657 32.8126 36.1694 32.8126 36.4012 33.1617C36.9301 33.9588 37.6994 35.2296 37.6994 35.877Z" fill="#A0ECFF"/>
<path d="M37.698 35.877C37.698 36.8631 36.8986 37.6632 35.9121 37.6632C35.6648 37.6632 35.4291 37.6126 35.2148 37.5217C35.8552 37.2506 36.3042 36.6159 36.3042 35.877C36.3042 35.311 35.7164 34.2686 35.2152 33.4828C35.2869 33.37 35.357 33.2629 35.4231 33.1627C35.6552 32.813 36.168 32.812 36.4 33.1617C36.929 33.9588 37.698 35.2293 37.698 35.877Z" fill="#60DAFF"/>
</svg>
