<svg width="33" height="33" viewBox="0 0 33 33" fill="none" xmlns="http://www.w3.org/2000/svg">
<path d="M25.9986 16.11C25.9986 21.5709 21.5714 25.9981 16.1105 25.9981C10.6495 25.9981 6.22266 21.5709 6.22266 16.11C6.22266 10.649 10.6495 6.22217 16.1105 6.22217C21.5714 6.22217 25.9986 10.649 25.9986 16.11Z" fill="#F6CB43"/>
<path d="M16.1089 3.41766C15.7531 3.41766 15.4648 3.12904 15.4648 2.7733V0.643534C15.4648 0.287801 15.7531 -0.000488281 16.1089 -0.000488281C16.4649 -0.000488281 16.7532 0.287801 16.7532 0.643534V2.7733C16.7532 3.12904 16.4649 3.41766 16.1089 3.41766Z" fill="#F8E98E"/>
<path d="M9.44213 5.20407C9.21963 5.20407 9.00308 5.08869 8.88373 4.88206L7.81885 3.0376C7.64098 2.72948 7.74644 2.33573 8.05457 2.15786C8.36269 1.97966 8.75678 2.08546 8.93464 2.39358L9.99953 4.23771C10.1774 4.54583 10.0719 4.93992 9.76381 5.11778C9.66231 5.1763 9.55156 5.20407 9.44213 5.20407Z" fill="#F8E98E"/>
<path d="M4.56048 10.0863C4.45105 10.0863 4.34029 10.0585 4.2388 10L2.39434 8.93513C2.08654 8.75727 1.98075 8.36318 2.15862 8.05506C2.33648 7.74693 2.73057 7.64147 3.03869 7.81933L4.88315 8.88422C5.19095 9.06209 5.29674 9.45617 5.11887 9.76396C4.99952 9.97092 4.78298 10.0863 4.56048 10.0863Z" fill="#F8E98E"/>
<path d="M2.77379 16.7532H0.644023C0.288289 16.7532 0 16.4646 0 16.1089C0 15.7531 0.288289 15.4648 0.644023 15.4648H2.77379C3.12986 15.4648 3.41815 15.7531 3.41815 16.1089C3.41815 16.4646 3.12986 16.7532 2.77379 16.7532Z" fill="#F8E98E"/>
<path d="M27.6606 10.0863C27.4381 10.0863 27.2212 9.97092 27.1022 9.76396C26.924 9.45584 27.0298 9.06209 27.3379 8.88422L29.182 7.81933C29.4905 7.64147 29.8843 7.74693 30.0621 8.05506C30.24 8.36318 30.1345 8.75727 29.8264 8.93513L27.9819 10C27.8804 10.0585 27.7697 10.0863 27.6606 10.0863Z" fill="#F8E98E"/>
<path d="M2.71741 24.4868C2.49459 24.4868 2.27804 24.3715 2.15869 24.1645C1.98082 23.8567 2.08629 23.4626 2.39441 23.2848L4.23887 22.2199C4.54699 22.0417 4.94108 22.1475 5.11894 22.4556C5.29681 22.7637 5.19135 23.1575 4.88322 23.3357L3.03876 24.4006C2.93727 24.4591 2.82652 24.4868 2.71741 24.4868Z" fill="#F8E98E"/>
<path d="M22.7763 5.20407C22.6672 5.20407 22.5565 5.1763 22.455 5.11778C22.1468 4.93992 22.0414 4.54583 22.2192 4.23771L23.2841 2.39358C23.462 2.08546 23.8561 1.97966 24.1639 2.15786C24.472 2.33573 24.5778 2.72948 24.3999 3.0376L23.335 4.88206C23.2157 5.08869 22.9991 5.20407 22.7763 5.20407Z" fill="#F8E98E"/>
<path d="M16.166 28.7003C16.5215 28.7136 16.7988 29.0128 16.7855 29.3683L16.7058 31.4966C16.6924 31.852 16.3936 32.1293 16.0381 32.116C15.6823 32.1027 15.405 31.8038 15.4183 31.4483L15.498 29.3201C15.5113 28.9646 15.8102 28.6869 16.166 28.7003Z" fill="#F8E98E"/>
<path d="M22.8951 27.1648C23.1174 27.1731 23.3295 27.2965 23.4411 27.5075L24.4361 29.3905C24.6023 29.7051 24.4822 30.0946 24.1676 30.2608C23.8531 30.4273 23.4632 30.3069 23.297 29.9923L22.3019 28.1096C22.1357 27.795 22.2558 27.4052 22.5704 27.239C22.674 27.1843 22.7857 27.1607 22.8951 27.1648Z" fill="#F8E98E"/>
<path d="M27.9571 22.4687C28.0665 22.4728 28.1761 22.5047 28.2753 22.5669L30.0786 23.7001C30.3795 23.8894 30.4705 24.2872 30.2812 24.5884C30.092 24.8897 29.6942 24.9803 29.393 24.791L27.5897 23.6578C27.2887 23.4686 27.1978 23.0708 27.387 22.7699C27.514 22.5675 27.7348 22.4603 27.9571 22.4687Z" fill="#F8E98E"/>
<path d="M29.9912 15.8733L32.1195 15.9531C32.475 15.9664 32.7523 16.2656 32.739 16.6211C32.7256 16.9766 32.4268 17.2539 32.0713 17.2405L29.943 17.1608C29.5872 17.1475 29.3099 16.8486 29.3232 16.4931C29.3365 16.1376 29.6354 15.86 29.9912 15.8733Z" fill="#F8E98E"/>
<path d="M9.56994 26.6656C9.67896 26.6697 9.7886 26.7016 9.88783 26.7639C10.1891 26.9532 10.2797 27.3509 10.0904 27.6522L8.95727 29.4551C8.76799 29.7564 8.37022 29.8474 8.06932 29.6578C7.76806 29.4685 7.67709 29.0711 7.86636 28.7698L8.99955 26.9665C9.12655 26.7645 9.34727 26.6573 9.56994 26.6656Z" fill="#F8E98E"/>
</svg>
