<svg width="44" height="37" viewBox="0 0 44 37" fill="none" xmlns="http://www.w3.org/2000/svg">
<path d="M26.3326 16.777C26.3326 22.2379 21.9054 26.6651 16.4444 26.6651C10.9835 26.6651 6.55664 22.2379 6.55664 16.777C6.55664 11.316 10.9835 6.88916 16.4444 6.88916C21.9054 6.88916 26.3326 11.316 26.3326 16.777Z" fill="#F6CB43"/>
<path d="M26.3312 16.7761C26.3312 22.2374 21.9044 26.6642 16.4434 26.6642C11.6536 26.6642 7.65884 23.2586 6.75 18.7366C7.3841 18.8642 8.03904 18.9313 8.7105 18.9313C14.1718 18.9313 18.5983 14.5045 18.5983 9.04318C18.5983 8.37171 18.5315 7.71678 18.4036 7.08301C22.9259 7.99251 26.3312 11.9872 26.3312 16.7761Z" fill="#FAB03C"/>
<path d="M16.4429 4.08465C16.0871 4.08465 15.7988 3.79603 15.7988 3.4403V1.31053C15.7988 0.954793 16.0871 0.666504 16.4429 0.666504C16.7989 0.666504 17.0872 0.954793 17.0872 1.31053V3.4403C17.0872 3.79603 16.7989 4.08465 16.4429 4.08465Z" fill="#F8E98E"/>
<path d="M9.77611 5.87107C9.55361 5.87107 9.33706 5.75568 9.21772 5.54905L8.15283 3.7046C7.97496 3.39647 8.08043 3.00272 8.38855 2.82485C8.69668 2.64665 9.09076 2.75245 9.26863 3.06057L10.3335 4.9047C10.5114 5.21283 10.4059 5.60691 10.0978 5.78478C9.99629 5.84329 9.88554 5.87107 9.77611 5.87107Z" fill="#F8E98E"/>
<path d="M4.89446 10.7533C4.78503 10.7533 4.67428 10.7255 4.57278 10.667L2.72832 9.60212C2.42053 9.42426 2.31473 9.03017 2.4926 8.72205C2.67047 8.41392 3.06455 8.30846 3.37268 8.48633L5.21713 9.55121C5.52493 9.72908 5.63072 10.1232 5.45286 10.431C5.33351 10.6379 5.11696 10.7533 4.89446 10.7533Z" fill="#F8E98E"/>
<path d="M3.10778 17.4202H0.978007C0.622274 17.4202 0.333984 17.1316 0.333984 16.7759C0.333984 16.4201 0.622274 16.1318 0.978007 16.1318H3.10778C3.46384 16.1318 3.75213 16.4201 3.75213 16.7759C3.75213 17.1316 3.46384 17.4202 3.10778 17.4202Z" fill="#F8E98E"/>
<path d="M27.9946 10.7533C27.7721 10.7533 27.5552 10.6379 27.4362 10.431C27.258 10.1228 27.3638 9.72908 27.6719 9.55121L29.516 8.48633C29.8245 8.30846 30.2182 8.41392 30.3961 8.72205C30.574 9.03017 30.4685 9.42426 30.1604 9.60212L28.3159 10.667C28.2144 10.7255 28.1037 10.7533 27.9946 10.7533Z" fill="#F8E98E"/>
<path d="M3.0514 25.1538C2.82857 25.1538 2.61202 25.0385 2.49267 24.8315C2.31481 24.5237 2.42027 24.1296 2.7284 23.9517L4.57285 22.8869C4.88098 22.7087 5.27506 22.8145 5.45293 23.1226C5.6308 23.4307 5.52533 23.8245 5.21721 24.0027L3.37275 25.0675C3.27125 25.1261 3.1605 25.1538 3.0514 25.1538Z" fill="#F8E98E"/>
<path d="M23.1103 5.87107C23.0012 5.87107 22.8904 5.84329 22.7889 5.78478C22.4808 5.60691 22.3754 5.21283 22.5532 4.9047L23.6181 3.06057C23.796 2.75245 24.1901 2.64665 24.4978 2.82485C24.806 3.00272 24.9118 3.39647 24.7339 3.7046L23.669 5.54905C23.5497 5.75568 23.3331 5.87107 23.1103 5.87107Z" fill="#F8E98E"/>
<path d="M38.1585 24.6972C37.818 19.0673 33.1449 14.6064 27.4293 14.6064C22.8197 14.6064 18.8884 17.5082 17.3607 21.5842C13.3911 21.6322 10.1875 24.8632 10.1875 28.8444C10.1875 32.855 13.439 36.1065 17.4496 36.1065H37.9592C41.1112 36.1065 43.6664 33.5512 43.6664 30.3992C43.6664 27.314 41.218 24.8024 38.1585 24.6972Z" fill="#A0ECFF"/>
<path d="M43.6672 30.4008C43.6672 33.5528 41.1116 36.1084 37.9596 36.1084H37.5176C37.9312 35.3183 38.1656 34.4187 38.1656 33.4656C38.1656 30.3803 35.7174 27.8684 32.6576 27.7629C32.3168 22.1333 27.6437 17.6721 21.9281 17.6721C21.1571 17.6721 20.4057 17.7535 19.6816 17.9075C21.6369 15.874 24.3852 14.6084 27.4297 14.6084C33.1453 14.6084 37.8187 19.0686 38.1593 24.6992C41.219 24.8037 43.6672 27.3156 43.6672 30.4008Z" fill="#60DAFF"/>
<path d="M35.314 24.0998C35.0231 24.0998 34.7593 23.9011 34.6882 23.6058C34.5893 23.1939 34.4538 22.7879 34.2855 22.3991C34.1443 22.0728 34.2944 21.6936 34.6211 21.5521C34.9474 21.4109 35.3266 21.561 35.4681 21.8877C35.6658 22.3442 35.8248 22.821 35.9412 23.3047C36.0242 23.6508 35.8113 23.9986 35.4654 24.0816C35.4145 24.0938 35.3639 24.0998 35.314 24.0998Z" fill="#A0ECFF"/>
<path d="M33.2826 20.3926C33.1133 20.3926 32.944 20.3261 32.8177 20.1942C31.3932 18.7101 29.4796 17.8929 27.4295 17.8929C27.0738 17.8929 26.7852 17.6046 26.7852 17.2488C26.7852 16.8931 27.0738 16.6045 27.4295 16.6045C29.8337 16.6045 32.0775 17.5626 33.7471 19.3022C33.9934 19.5591 33.9851 19.9668 33.7282 20.2131C33.6036 20.3327 33.4429 20.3926 33.2826 20.3926Z" fill="#A0ECFF"/>
<path d="M8.62536 27.9515C8.86902 23.9263 12.2098 20.7373 16.2958 20.7373C19.5913 20.7373 22.4018 22.8119 23.4941 25.7258C26.332 25.7602 28.6221 28.0702 28.6221 30.916C28.6221 33.7834 26.298 36.1079 23.4306 36.1079C22.2302 36.1079 10.0013 36.1079 8.76785 36.1079C6.51443 36.1079 4.6875 34.2813 4.6875 32.0279C4.6875 29.8224 6.43806 28.0265 8.62536 27.9515Z" fill="#F0F5F7"/>
<path d="M28.6218 30.9164C28.6218 33.7589 26.336 36.0682 23.5013 36.1069C24.351 35.1819 24.8694 33.9497 24.8694 32.5959C24.8694 29.7503 22.5793 27.44 19.7407 27.4053C18.6487 24.4917 15.8382 22.4168 12.5424 22.4168C12.1529 22.4168 11.7704 22.4462 11.3965 22.5021C12.7259 21.3998 14.4328 20.7373 16.2948 20.7373C19.5906 20.7373 22.4011 22.8112 23.4931 25.7262C26.3317 25.7605 28.6218 28.0698 28.6218 30.9164Z" fill="#DDE9ED"/>
</svg>
