<svg width="44" height="38" viewBox="0 0 44 38" fill="none" xmlns="http://www.w3.org/2000/svg">
<path d="M0.978255 32.1887C0.813282 32.1887 0.648309 32.1255 0.522678 31.9999C0.271086 31.7483 0.271086 31.3403 0.522678 31.0887L11.8827 19.7287C12.1343 19.4771 12.5422 19.4771 12.7938 19.7287C13.0454 19.9803 13.0454 20.3883 12.7938 20.6396L1.4335 31.9999C1.30787 32.1255 1.1429 32.1887 0.978255 32.1887Z" fill="#A0ECFF"/>
<path d="M2.37075 27.9596C2.20611 27.9596 2.04114 27.8968 1.9155 27.7712C1.66358 27.5196 1.66358 27.1116 1.9155 26.86L3.36753 25.4077C3.61912 25.1564 4.02709 25.1564 4.27868 25.4077C4.53028 25.6593 4.53028 26.0672 4.27868 26.3188L2.82633 27.7712C2.7007 27.8968 2.53572 27.9596 2.37075 27.9596Z" fill="#A0ECFF"/>
<path d="M5.21654 34.4996C5.05156 34.4996 4.88659 34.4368 4.76096 34.3111C4.50937 34.0596 4.50937 33.6516 4.76096 33.4L6.21299 31.948C6.46458 31.6964 6.87255 31.6964 7.12414 31.948C7.37573 32.1996 7.37573 32.6075 7.12414 32.8588L5.67211 34.3111C5.54615 34.4368 5.38151 34.4996 5.21654 34.4996Z" fill="#A0ECFF"/>
<path d="M30.1169 32.1887C29.952 32.1887 29.787 32.1255 29.6614 31.9999C29.4098 31.7483 29.4098 31.3403 29.6614 31.0887L41.0213 19.7287C41.2729 19.4771 41.6809 19.4771 41.9325 19.7287C42.1841 19.9803 42.1841 20.3883 41.9325 20.6396L30.5725 31.9999C30.4465 32.1255 30.2816 32.1887 30.1169 32.1887Z" fill="#A0ECFF"/>
<path d="M21.9615 28.4898L8.21787 37.6866C7.82841 37.9475 7.41713 37.8099 7.191 37.5263C6.97015 37.2486 6.92486 36.8313 7.24919 36.507L14.0184 29.7378H9.51814C8.83544 29.7378 8.4926 28.9116 8.97595 28.4286L16.2172 21.188H22.6842L16.7865 27.0854H21.5351C22.2931 27.0854 22.5913 28.0679 21.9615 28.4898Z" fill="#F6CB43"/>
<path d="M21.9619 28.4886L8.21827 37.6855C7.82882 37.9463 7.41754 37.8088 7.19141 37.5251L18.5603 28.4391H14.0508C13.3675 28.4391 13.0253 27.6129 13.5083 27.1295L19.4506 21.1865H22.6846L16.7866 27.0842H21.5355C22.2935 27.0842 22.5917 28.0668 21.9619 28.4886Z" fill="#FAB03C"/>
<path d="M26.3826 30.8022C26.2179 30.8022 26.0529 30.7394 25.927 30.6137C25.6754 30.3621 25.6754 29.9542 25.927 29.7026L30.9555 24.674C31.2071 24.4225 31.6151 24.4225 31.8667 24.674C32.1183 24.9256 32.1183 25.3336 31.8667 25.5852L26.8381 30.6137C26.7122 30.7394 26.5475 30.8022 26.3826 30.8022Z" fill="#A0ECFF"/>
<path d="M22.6072 34.5779C22.4425 34.5779 22.2775 34.5147 22.1516 34.3891C21.9 34.1375 21.9 33.7295 22.1516 33.478L23.762 31.8679C24.0136 31.6163 24.4212 31.6163 24.6728 31.8679C24.9244 32.1195 24.9244 32.5271 24.6728 32.779L23.0627 34.3891C22.9371 34.5147 22.7721 34.5779 22.6072 34.5779Z" fill="#A0ECFF"/>
<path d="M24.3904 26.5071C24.2254 26.5071 24.0607 26.444 23.9348 26.3183C23.6832 26.0667 23.6832 25.6588 23.9348 25.4072L28.9002 20.4421C29.1518 20.1905 29.5597 20.1905 29.8113 20.4421C30.0626 20.6937 30.0626 21.1013 29.8113 21.3529L24.8459 26.3183C24.72 26.444 24.555 26.5071 24.3904 26.5071Z" fill="#A0ECFF"/>
<path d="M37.9796 10.9214C37.6278 5.10701 32.8016 0.5 26.8986 0.5C22.1379 0.5 18.0777 3.49662 16.5 7.70658C12.4002 7.75617 9.0918 11.093 9.0918 15.2044C9.0918 19.3466 12.4498 22.7046 16.592 22.7046H37.774C41.0291 22.7046 43.668 20.0657 43.668 16.8105C43.668 13.6241 41.1395 11.0298 37.9796 10.9214Z" fill="#6D6D6D"/>
<path d="M43.6682 16.8098C43.6682 20.065 41.0287 22.7046 37.7735 22.7046H37.3169C37.7441 21.8886 37.9861 20.9596 37.9861 19.9751C37.9861 16.7887 35.4576 14.1944 32.2976 14.0856C31.9459 8.27158 27.1197 3.66424 21.2164 3.66424C20.4203 3.66424 19.6443 3.74788 18.8965 3.90724C20.9158 1.80689 23.7541 0.5 26.8985 0.5C32.8015 0.5 37.628 5.10635 37.9798 10.9214C41.1397 11.0292 43.6682 13.6238 43.6682 16.8098Z" fill="#565656"/>
<path d="M35.0394 10.2816C34.7484 10.2816 34.4846 10.0829 34.4135 9.78763C34.311 9.36115 34.1709 8.94061 33.9966 8.53793C33.8551 8.21163 34.0052 7.83242 34.3319 7.69092C34.6582 7.54942 35.0374 7.69985 35.1789 8.02616C35.3825 8.49661 35.5465 8.98789 35.6662 9.48645C35.7492 9.83259 35.5363 10.1801 35.1905 10.2634C35.1399 10.2756 35.0893 10.2816 35.0394 10.2816Z" fill="#6D6D6D"/>
<path d="M32.9427 6.45228C32.7735 6.45228 32.6042 6.38616 32.4779 6.25424C31.0027 4.71725 29.0211 3.8709 26.8979 3.8709C26.5422 3.8709 26.2539 3.58228 26.2539 3.22654C26.2539 2.87081 26.5422 2.58252 26.8979 2.58252C29.3752 2.58252 31.6871 3.56971 33.4073 5.36193C33.6539 5.61882 33.6453 6.02646 33.3887 6.27276C33.2638 6.39277 33.1031 6.45228 32.9427 6.45228Z" fill="#6D6D6D"/>
<path d="M7.475 14.2806C7.72659 10.1236 11.1768 6.83008 15.397 6.83008C18.8006 6.83008 21.7033 8.97274 22.8314 11.9823C25.7622 12.0176 28.1274 14.4033 28.1274 17.3427C28.1274 20.304 25.7268 22.7045 22.7656 22.7045C21.5258 22.7045 8.89595 22.7045 7.62212 22.7045C5.29498 22.7045 3.4082 20.8181 3.4082 18.4906C3.4082 16.2127 5.21596 14.3583 7.475 14.2806Z" fill="#A09D9C"/>
<path d="M28.1279 17.3427C28.1279 20.2785 25.767 22.6632 22.8395 22.7032C23.7172 21.7481 24.2525 20.4756 24.2525 19.0771C24.2525 16.1383 21.8877 13.7523 18.9558 13.7166C17.8278 10.7074 14.9254 8.56444 11.5215 8.56444C11.1194 8.56444 10.7244 8.59486 10.3379 8.65238C11.7112 7.5141 13.4737 6.83008 15.3968 6.83008C18.8008 6.83008 21.7032 8.97208 22.8312 11.9823C25.7627 12.0176 28.1279 14.4026 28.1279 17.3427Z" fill="#82807F"/>
<path d="M28.1318 34.5778C28.1305 34.5778 28.1295 34.5778 28.1285 34.5778H28.1196C27.7638 34.5758 27.4769 34.2862 27.4785 33.9304C27.4802 33.5757 27.7681 33.2891 28.1225 33.2891H28.1259H28.1348C28.4905 33.291 28.7775 33.5807 28.7758 33.9364C28.7742 34.2911 28.4859 34.5778 28.1318 34.5778Z" fill="#A0ECFF"/>
<path d="M35.8017 30.2117C35.8007 30.2117 35.7997 30.2117 35.7987 30.2117H35.7898C35.4341 30.2101 35.1468 29.9201 35.1484 29.5644C35.1501 29.2096 35.4384 28.9233 35.7928 28.9233H35.7958H35.8047C36.1604 28.925 36.4477 29.2146 36.4461 29.5703C36.4441 29.9251 36.1561 30.2117 35.8017 30.2117Z" fill="#A0ECFF"/>
<path d="M3.65523 36.0833H3.64631C3.29057 36.0833 3.00195 35.7947 3.00195 35.4389C3.00195 35.0832 3.29057 34.7949 3.64631 34.7949H3.65523C4.01097 34.7949 4.29926 35.0832 4.29926 35.4389C4.29926 35.795 4.01097 36.0833 3.65523 36.0833Z" fill="#A0ECFF"/>
</svg>
